HIERARCHY
ROOT Hips
{
	OFFSET -3.958830 18.904000 13.208200
	CHANNELS 6 Xposition Yposition Zposition Zrotation Yrotation Xrotation 
	JOINT LHipJoint
	{
		OFFSET 0.000000 0.000000 0.000000
		CHANNELS 3 Zrotation Yrotation Xrotation
		JOINT LeftUpLeg
		{
			OFFSET 1.800000 -1.400000 0.085000
			CHANNELS 3 Zrotation Yrotation Xrotation
			JOINT LeftLeg
			{
				OFFSET 2.215000 -6.000000 0.000000
				CHANNELS 3 Zrotation Yrotation Xrotation
				JOINT LeftFoot
				{
					OFFSET 2.500000 -6.900000 0.000000
					CHANNELS 3 Zrotation Yrotation Xrotation
					JOINT LeftToeBase
					{
						OFFSET 0.200000 -0.500000 1.950000
						CHANNELS 3 Zrotation Yrotation Xrotation
						End Site
						{
							OFFSET 0.000000 0.000000 0.000000
						}
					}
				}
			}
		}
	}
	JOINT RHipJoint
	{
		OFFSET 0.000000 0.000000 0.000000
		CHANNELS 3 Zrotation Yrotation Xrotation
		JOINT RightUpLeg
		{
			OFFSET -1.800000 -1.400000 0.085000
			CHANNELS 3 Zrotation Yrotation Xrotation
			JOINT RightLeg
			{
				OFFSET -2.215000 -6.000000 0.000000
				CHANNELS 3 Zrotation Yrotation Xrotation
				JOINT RightFoot
				{
					OFFSET -2.500000 -6.900000 0.000000
					CHANNELS 3 Zrotation Yrotation Xrotation
					JOINT RightToeBase
					{
						OFFSET -0.200000 -0.500000 1.950000
						CHANNELS 3 Zrotation Yrotation Xrotation
						End Site
						{
							OFFSET 0.000000 0.000000 0.000000
						}
					}
				}
			}
		}
	}
	JOINT LowerBack
	{
		OFFSET 0.000000 0.000000 0.000000
		CHANNELS 3 Zrotation Yrotation Xrotation
		JOINT Spine
		{
			OFFSET -0.087000 1.940000 -0.288900
			CHANNELS 3 Zrotation Yrotation Xrotation
			JOINT Spine1
			{
				OFFSET 0.000000 1.950000 0.060000
				CHANNELS 3 Zrotation Yrotation Xrotation
				JOINT Neck
				{
					OFFSET 0.000000 0.000000 0.000000
					CHANNELS 3 Zrotation Yrotation Xrotation
					JOINT Neck1
					{
						OFFSET 0.000000 1.600000 0.340000
						CHANNELS 3 Zrotation Yrotation Xrotation
						JOINT Head
						{
							OFFSET 0.000000 1.667000 -0.240000
							CHANNELS 3 Zrotation Yrotation Xrotation
							End Site
							{
								OFFSET 0.000000 0.000000 0.000000
							}
						}
					}
				}
				JOINT LeftShoulder
				{
					OFFSET 0.000000 0.000000 0.000000
					CHANNELS 3 Zrotation Yrotation Xrotation
					JOINT LeftArm
					{
						OFFSET 2.700000 1.550000 -0.730000
						CHANNELS 3 Zrotation Yrotation Xrotation
						JOINT LeftForeArm
						{
							OFFSET 5.450000 0.000000 0.000000
							CHANNELS 3 Zrotation Yrotation Xrotation
							JOINT LeftHand
							{
								OFFSET 3.450000 0.000000 0.000000
								CHANNELS 3 Zrotation Yrotation Xrotation
								JOINT LeftHandIndex1
								{
									OFFSET 0.750000 0.000000 0.000000
									CHANNELS 3 Zrotation Yrotation Xrotation
									End Site
									{
										OFFSET 0.000000 0.000000 0.000000
									}
								}
							}
						}
					}
				}
				JOINT RightShoulder
				{
					OFFSET 0.000000 0.000000 0.000000
					CHANNELS 3 Zrotation Yrotation Xrotation
					JOINT RightArm
					{
						OFFSET -2.700000 1.550000 -0.730000
						CHANNELS 3 Zrotation Yrotation Xrotation
						JOINT RightForeArm
						{
							OFFSET -5.450000 0.000000 0.000000
							CHANNELS 3 Zrotation Yrotation Xrotation
							JOINT RightHand
							{
								OFFSET -3.450000 0.000000 0.000000
								CHANNELS 3 Zrotation Yrotation Xrotation
								JOINT RightHandIndex1
								{
									OFFSET -0.750000 0.000000 0.000000
									CHANNELS 3 Zrotation Yrotation Xrotation
									End Site
									{
										OFFSET 0.000000 0.000000 0.000000
									}
								}
							}
						}
					}
				}
			}
		}
	}
}
MOTION
Frames: 10
Frame Time: 0.016667
0.521490 16.965370 -1.284980 -4.574738 3.399533 3.151610 -14.963592 14.181493 3.775414 12.884074 -1.027186 -13.467460 -8.736298 5.067241 4.749854 -0.505812 4.218533 3.264806 -0.264550 -0.730750 -0.347440 17.939813 -10.909019 3.248754 -8.185790 1.126309 -9.953362 10.676461 -5.362247 6.434423 -0.264075 -3.110247 3.635703 -0.506130 0.441850 0.126180 -3.549843 -2.856234 -9.062873 20.826852 -1.741910 9.236924 -10.268325 4.603531 -17.840626 8.491219 -7.082298 -18.168977 -13.257513 1.931211 70.238607 -3.717570 -9.067570 -1.739670 -20.566967 9.164103 2.850741 -56.882451 24.688584 -13.892864 3.896100 -43.553012 -3.268705 -3.389959 2.301279 1.074300 -0.061770 0.064660 0.195580 1.458048 7.877031 13.387412 44.631208 -8.093689 -13.067846 -63.850071 50.305933 -26.061692 1.584306 -0.454273 -0.476390 0.482620 0.425650 -0.115250 
0.473650 16.973980 -1.257990 -4.191483 2.250657 3.820096 -14.988111 14.218221 3.794352 12.596413 -1.122759 -13.612138 -8.628793 5.012367 4.681407 -0.529149 4.191213 3.288582 -0.261540 -0.742120 -0.324370 17.906414 -10.896382 3.252277 -8.213302 1.233959 -10.780556 10.899132 -5.406333 6.805914 -0.244133 -3.056070 3.659655 -0.502730 0.445970 0.107180 -3.425178 -2.946300 -9.109169 19.673754 -1.495003 8.730754 -9.546048 4.705824 -19.193036 8.560293 -7.146819 -18.012840 -13.847805 2.646859 70.555426 -4.411440 -8.228930 -0.702310 -19.838681 10.495521 2.363098 -56.052440 24.836290 -13.176809 5.997163 -43.291050 -3.562676 -3.403787 2.254898 1.087590 -0.059140 0.057650 0.199750 0.872092 6.525556 13.294549 44.902782 -9.673052 -12.993956 -64.025735 51.911351 -26.304396 1.540430 -0.408484 -0.502630 0.500900 0.414740 -0.130560 
0.380350 16.979770 -1.214870 -3.760986 0.258278 5.013654 -14.989706 14.301996 3.830880 12.341563 -1.316558 -14.279963 -8.364409 4.959608 4.871767 -0.546077 4.150823 3.311313 -0.309760 -0.811670 -0.336590 17.887280 -10.878290 3.261500 -7.709333 1.436136 -12.310663 10.680514 -5.379690 7.477964 -0.188809 -2.911622 3.710274 -0.538060 0.475850 0.102490 -3.320812 -3.136878 -9.164781 18.637771 -1.717470 7.979381 -9.299032 4.481370 -21.539659 8.324505 -7.194327 -18.114219 -14.533445 3.623547 70.426121 -5.164530 -7.029700 2.018360 -17.346890 12.394523 2.176431 -54.579503 26.023592 -12.299785 7.710548 -43.885322 -3.480490 -3.449321 2.226773 1.082850 -0.034600 0.035350 0.186810 -0.924072 4.693975 13.432746 46.544960 -11.875326 -13.088060 -64.484866 53.772788 -26.486490 1.492176 -0.356995 -0.525770 0.506350 0.440470 -0.138050 
0.274550 16.990800 -1.174650 -3.040476 -2.673664 6.436179 -15.007191 14.446267 3.871866 11.568436 -1.565585 -15.163241 -7.728404 4.806741 5.198590 -0.581645 4.018211 3.362514 -0.359710 -0.870890 -0.362120 17.838562 -10.854983 3.292293 -7.395435 1.748187 -14.319152 10.015945 -5.202340 7.960388 -0.131658 -2.684689 3.793449 -0.575380 0.494870 0.096330 -3.114873 -3.429008 -9.252598 17.094899 -2.167499 7.968239 -9.220046 4.244065 -24.784709 8.240553 -7.203115 -18.384950 -15.150821 4.756573 70.511469 -5.456600 -5.670090 3.302700 -13.255576 15.380879 1.763407 -52.486368 27.033018 -10.726615 8.218862 -44.497773 -2.649184 -3.488716 2.198992 1.102090 -0.023950 0.030700 0.174670 -4.421899 2.166997 13.771837 49.084256 -13.957126 -13.583513 -61.707344 58.279714 -25.670529 1.378247 -0.258769 -0.549100 0.515020 0.468390 -0.145940 
0.145890 17.003650 -1.128230 -2.909678 -6.225862 7.952877 -15.004483 14.552405 3.900955 11.454626 -1.773147 -15.950389 -7.350542 4.769738 5.648047 -0.564073 3.928430 3.383761 -0.378640 -0.888260 -0.388830 17.830987 -10.791671 3.330702 -6.364977 2.061895 -16.160890 9.141930 -4.920036 8.293047 -0.082342 -2.452737 3.881229 -0.602420 0.496930 0.101300 -2.978773 -3.695904 -9.293927 16.045303 -2.676603 7.640837 -8.486823 4.034452 -27.476848 7.811217 -7.417133 -18.468710 -16.482805 6.336563 69.540732 -4.501230 -4.575860 4.818030 -8.728335 18.740246 1.447388 -50.992357 27.638219 -9.334249 9.157194 -45.224787 -1.912032 -3.504774 2.238688 1.093270 -0.019400 0.029800 0.180270 -7.592295 -0.961452 13.595097 50.061016 -15.550736 -13.752574 -59.200565 62.824402 -24.952087 1.296360 -0.226012 -0.535110 0.481380 0.465610 -0.138010 
0.005090 17.023620 -1.096570 -3.273556 -11.173804 9.300500 -14.994682 14.695865 3.879971 11.624421 -1.839980 -16.360524 -6.694149 4.765587 6.229414 -0.542855 3.895728 3.407823 -0.413720 -0.907430 -0.437040 17.850482 -10.652045 3.366447 -5.118621 2.413862 -17.639285 8.596834 -4.705051 8.686634 -0.032554 -2.266085 3.972877 -0.621500 0.543060 0.083350 -2.871813 -4.112030 -9.253623 15.973204 -2.686662 7.383296 -7.831560 3.984736 -29.353504 7.599516 -7.916982 -18.458615 -19.259987 8.777945 67.719130 -3.242430 -3.483060 6.349660 -5.507020 21.070656 1.043447 -49.281491 27.460443 -8.129335 12.219712 -43.814209 -1.904169 -3.558087 2.203283 1.071330 0.002070 0.010610 0.196570 -9.531704 -3.259871 13.304569 49.604520 -17.608051 -14.264733 -55.630372 67.740567 -24.185641 1.220560 -0.204443 -0.543660 0.498210 0.471280 -0.114620 
-0.153180 17.053420 -1.081140 -3.357644 -17.323884 10.014200 -14.973086 14.837939 3.844394 11.786218 -1.762662 -15.991975 -6.427319 4.904515 7.030567 -0.550776 3.933638 3.391123 -0.392930 -0.863980 -0.439490 17.869017 -10.563223 3.415084 -4.120442 2.792368 -18.943541 8.163147 -4.581670 9.462238 -0.027982 -2.100622 4.034751 -0.596800 0.552310 0.055650 -2.754387 -4.402920 -9.189414 15.257511 -2.996700 7.215374 -7.233624 3.290860 -30.691870 7.508404 -8.437541 -19.190810 -22.230333 12.380087 67.907376 -0.798650 -1.979840 6.250320 -3.033874 21.086384 1.633019 -48.823874 28.442409 -7.524572 20.018320 -40.330150 -3.099594 -3.587645 2.089965 1.103360 -0.015210 0.031340 0.212870 -10.883638 -3.356128 13.343102 50.563471 -17.631271 -14.575323 -49.211951 69.990318 -21.476449 1.257425 -0.326220 -0.560040 0.540050 0.460820 -0.111850 
-0.299320 17.074080 -1.062450 -3.540968 -21.854774 10.545066 -14.940428 14.995202 3.750273 11.767722 -1.760234 -16.118417 -5.536329 5.002658 8.725779 -0.563083 3.948571 3.383529 -0.394420 -0.861230 -0.465300 17.900332 -10.484679 3.476393 -3.240743 3.012402 -19.537644 8.126823 -4.520101 9.602207 -0.024451 -2.035876 4.049707 -0.593980 0.583190 0.062130 -2.733187 -4.708811 -9.075556 15.247951 -3.376885 6.737659 -7.022221 2.341248 -31.412095 7.510687 -8.544307 -19.828217 -24.377244 14.986716 66.907781 0.590600 -0.779980 7.850540 -0.528126 20.900730 1.894492 -48.030524 27.788550 -6.542194 24.412615 -35.608868 -2.962987 -3.653999 2.054131 1.106730 -0.004070 0.028190 0.228930 -12.571588 -3.749593 13.694817 51.415413 -18.888199 -15.135344 -41.829604 74.023304 -19.260620 1.290692 -0.527302 -0.564460 0.543150 0.467470 -0.099880 
-0.451860 17.075190 -1.051040 -3.559913 -25.855175 10.537144 -14.903430 15.095633 3.642074 11.867018 -1.723470 -16.319703 -4.812910 5.258942 11.089561 -0.573954 4.016802 3.374559 -0.405930 -0.858660 -0.458720 17.930571 -10.520494 3.518943 -2.260323 2.999581 -19.345908 7.483873 -4.373863 9.630329 -0.015694 -1.983687 4.092563 -0.582570 0.614350 0.025660 -2.718870 -4.743151 -8.982683 14.166342 -3.552100 6.686531 -6.458445 1.329171 -31.538666 7.470193 -7.980652 -19.784748 -24.215385 15.869854 65.947257 1.150380 0.790160 8.456310 1.188824 21.106557 1.613339 -46.161817 26.129631 -5.674773 26.617024 -32.964594 -2.662084 -3.703793 1.990978 1.106070 0.011780 0.020910 0.242050 -13.663678 -5.491202 13.715926 51.209735 -20.504368 -14.692520 -31.523038 78.444569 -15.289547 1.387059 -0.809546 -0.602610 0.590740 0.451220 -0.101300 
-0.605440 17.098480 -1.056790 -2.935411 -29.787192 10.095207 -14.872821 15.214836 3.534661 10.922846 -1.742326 -16.477297 -3.674596 5.348552 13.778335 -0.553729 3.980864 3.400779 -0.362860 -0.781660 -0.427090 17.942584 -10.604429 3.564284 -1.671895 2.945881 -19.211391 6.791224 -4.203636 9.727313 -0.027692 -1.931913 4.130189 -0.544510 0.602640 -0.016340 -2.652350 -4.729501 -8.886989 12.155181 -3.499867 7.050900 -5.674162 0.074697 -32.214890 7.654160 -7.524723 -19.766273 -25.014654 17.367777 64.960301 2.027030 2.218270 8.826790 2.214288 21.775094 1.302528 -43.102084 24.955572 -4.643607 27.968561 -33.696479 -2.602178 -3.662288 1.999015 1.097430 -0.004090 0.042490 0.281410 -14.120765 -7.929425 13.697137 48.884874 -23.592222 -11.971287 -10.138405 84.156762 -2.578181 1.579795 -1.342472 -0.607610 0.611510 0.377870 -0.087850 
